<svg width="22" height="22" viewBox="0 0 22 22" fill="none" xmlns="http://www.w3.org/2000/svg">
<path d="M18.333 3.6665H3.66634C2.65801 3.6665 1.84217 4.4915 1.84217 5.49984L1.83301 16.4998C1.83301 17.5082 2.65801 18.3332 3.66634 18.3332H18.333C19.3413 18.3332 20.1663 17.5082 20.1663 16.4998V5.49984C20.1663 4.4915 19.3413 3.6665 18.333 3.6665ZM17.9663 7.56234L11.4855 11.614C11.1922 11.7973 10.8072 11.7973 10.5138 11.614L4.03301 7.56234C3.94109 7.51074 3.8606 7.44103 3.79641 7.35742C3.73221 7.27381 3.68565 7.17805 3.65954 7.07593C3.63342 6.9738 3.6283 6.86744 3.64448 6.76329C3.66067 6.65913 3.69782 6.55933 3.75368 6.46995C3.80955 6.38056 3.88297 6.30344 3.96951 6.24325C4.05604 6.18306 4.15389 6.14106 4.25713 6.11978C4.36037 6.0985 4.46685 6.09839 4.57013 6.11946C4.67342 6.14052 4.77135 6.18233 4.85801 6.24234L10.9997 10.0832L17.1413 6.24234C17.228 6.18233 17.3259 6.14052 17.4292 6.11946C17.5325 6.09839 17.639 6.0985 17.7422 6.11978C17.8455 6.14106 17.9433 6.18306 18.0298 6.24325C18.1164 6.30344 18.1898 6.38056 18.2457 6.46995C18.3015 6.55933 18.3387 6.65913 18.3549 6.76329C18.371 6.86744 18.3659 6.9738 18.3398 7.07593C18.3137 7.17805 18.2671 7.27381 18.2029 7.35742C18.1388 7.44103 18.0583 7.51074 17.9663 7.56234Z" fill="#375DFB"/>
</svg>
