<svg width="22" height="22" viewBox="0 0 22 22" fill="none" xmlns="http://www.w3.org/2000/svg">
<path d="M7.12404 2.23574L8.11129 1.92041C9.0353 1.62524 10.0235 2.10282 10.4195 3.03599L11.2078 4.89499C11.5515 5.70441 11.3609 6.65682 10.7366 7.24899L9.00138 8.89716C9.10832 9.88349 9.43955 10.8542 9.99505 11.8094C10.5233 12.7333 11.2311 13.5421 12.0768 14.1882L14.1631 13.4915C14.9533 13.2284 15.814 13.5318 16.299 14.2441L17.4283 15.9032C17.993 16.7319 17.8912 17.8741 17.1918 18.5762L16.442 19.3288C15.6958 20.0777 14.6306 20.35 13.6443 20.042C11.3172 19.316 9.17738 17.1609 7.22488 13.5767C5.26993 9.98646 4.57999 6.94068 5.15505 4.4394C5.39704 3.38707 6.14688 2.54832 7.12588 2.23574" fill="#FFA701"/>
</svg>
