<svg width="20" height="20" viewBox="0 0 20 20" fill="none" xmlns="http://www.w3.org/2000/svg">
<path d="M10.0003 5.83333C9.5583 5.83333 9.13438 5.65774 8.82181 5.34518C8.50925 5.03262 8.33366 4.60869 8.33366 4.16667C8.33366 3.72464 8.50925 3.30072 8.82181 2.98816C9.13438 2.67559 9.5583 2.5 10.0003 2.5C10.4424 2.5 10.8663 2.67559 11.1788 2.98816C11.4914 3.30072 11.667 3.72464 11.667 4.16667C11.667 4.60869 11.4914 5.03262 11.1788 5.34518C10.8663 5.65774 10.4424 5.83333 10.0003 5.83333ZM10.0003 11.6667C9.5583 11.6667 9.13437 11.4911 8.82181 11.1785C8.50925 10.866 8.33366 10.442 8.33366 10C8.33366 9.55797 8.50925 9.13405 8.82181 8.82149C9.13438 8.50893 9.5583 8.33333 10.0003 8.33333C10.4424 8.33333 10.8663 8.50893 11.1788 8.82149C11.4914 9.13405 11.667 9.55797 11.667 10C11.667 10.442 11.4914 10.866 11.1788 11.1785C10.8663 11.4911 10.4424 11.6667 10.0003 11.6667ZM10.0003 17.5C9.5583 17.5 9.13437 17.3244 8.82181 17.0118C8.50925 16.6993 8.33366 16.2754 8.33366 15.8333C8.33366 15.3913 8.50925 14.9674 8.82181 14.6548C9.13437 14.3423 9.5583 14.1667 10.0003 14.1667C10.4424 14.1667 10.8663 14.3423 11.1788 14.6548C11.4914 14.9674 11.667 15.3913 11.667 15.8333C11.667 16.2754 11.4914 16.6993 11.1788 17.0118C10.8663 17.3244 10.4424 17.5 10.0003 17.5Z" fill="#6C7278"/>
</svg>
