<svg width="19" height="19" viewBox="0 0 19 19" fill="none" xmlns="http://www.w3.org/2000/svg">
<path d="M8.70801 17.4171L7.53792 15.5535C6.72251 14.2552 6.3148 13.606 5.6688 13.4896C4.61588 13.2996 3.52892 14.0161 2.77051 14.6534" stroke="#FBBC05" stroke-width="1.5" stroke-linecap="round" stroke-linejoin="round"/>
<path d="M9.49967 7.12516H6.33301M12.6663 11.0835H6.33301M13.458 1.5835V3.16683M9.49967 1.5835V3.16683M5.54134 1.5835V3.16683M2.77051 7.12516V12.689C2.77051 13.6414 2.77051 14.1172 3.00722 14.4995C3.24313 14.8827 3.66905 15.0957 4.52088 15.5208L7.64322 17.0827C8.30901 17.4152 8.31613 17.4168 9.0603 17.4168H11.4788C13.7177 17.4168 14.8379 17.4168 15.533 16.721C16.2288 16.0259 16.2288 14.9057 16.2288 12.6668V7.12516C16.2288 4.88633 16.2288 3.76612 15.533 3.07104C14.8379 2.37516 13.7177 2.37516 11.4788 2.37516H7.52051C5.28167 2.37516 4.16147 2.37516 3.46638 3.07104C2.77051 3.76612 2.77051 4.88633 2.77051 7.12516Z" stroke="#FBBC05" stroke-width="1.5" stroke-linecap="round" stroke-linejoin="round"/>
</svg>
