<svg width="18" height="18" viewBox="0 0 18 18" fill="none" xmlns="http://www.w3.org/2000/svg">
<path fill-rule="evenodd" clip-rule="evenodd" d="M3.75 3.75C3.15326 3.75 2.58097 3.98705 2.15901 4.40901C1.73705 4.83097 1.5 5.40326 1.5 6V12C1.5 12.5967 1.73705 13.169 2.15901 13.591C2.58097 14.0129 3.15326 14.25 3.75 14.25H11.25C11.8467 14.25 12.419 14.0129 12.841 13.591C13.2629 13.169 13.5 12.5967 13.5 12V10.8105L15.2197 12.5302C15.3246 12.6351 15.4583 12.7065 15.6037 12.7354C15.7492 12.7644 15.9 12.7495 16.037 12.6928C16.174 12.636 16.2911 12.5399 16.3736 12.4166C16.456 12.2933 16.5 12.1483 16.5 12V6C16.5 5.85169 16.456 5.70671 16.3736 5.58341C16.2911 5.4601 16.174 5.36399 16.037 5.30724C15.9 5.25049 15.7492 5.23564 15.6037 5.26456C15.4583 5.29349 15.3246 5.36489 15.2197 5.46975L13.5 7.1895V6C13.5 5.40326 13.2629 4.83097 12.841 4.40901C12.419 3.98705 11.8467 3.75 11.25 3.75H3.75Z" fill="#007E48"/>
</svg>
