<svg width="18" height="18" viewBox="0 0 18 18" fill="none" xmlns="http://www.w3.org/2000/svg">
<path d="M1.28613 6.26765C1.28613 5.62829 1.54012 5.01511 1.99221 4.56302C2.44431 4.11092 3.05749 3.85693 3.69685 3.85693H9.16113C9.80049 3.85693 10.4137 4.11092 10.8658 4.56302C11.3179 5.01511 11.5718 5.62829 11.5718 6.26765V11.7319C11.5718 12.3713 11.3179 12.9845 10.8658 13.4366C10.4137 13.8887 9.80049 14.1426 9.16113 14.1426H3.69685C3.05749 14.1426 2.44431 13.8887 1.99221 13.4366C1.54012 12.9845 1.28613 12.3713 1.28613 11.7319V6.26765ZM14.9481 13.296L12.2147 11.4086V6.58908L14.9481 4.70165C15.6938 4.18608 16.7121 4.72093 16.7121 5.62736V12.3709C16.7121 13.2774 15.6945 13.8109 14.9481 13.296Z" fill="white"/>
</svg>
