<svg width="19" height="19" viewBox="0 0 19 19" fill="none" xmlns="http://www.w3.org/2000/svg">
<path d="M14.1432 7.82601C14.4882 7.60781 14.7352 7.27231 14.8413 6.87439C14.9529 6.45603 14.8956 6.01904 14.6801 5.64396C14.2458 4.88808 13.2931 4.61666 12.531 5.02021L11.0818 2.49797C10.8901 2.16438 10.5795 1.92546 10.2072 1.82521C9.83488 1.72496 9.44697 1.77582 9.11505 1.96846C8.78306 2.16106 8.5453 2.47315 8.44553 2.84722C8.37036 3.12909 8.38066 3.41986 8.47227 3.68878C7.7839 5.43187 6.32702 7.20952 4.34904 8.72603C4.31836 8.70538 4.28444 8.68942 4.24805 8.67961C4.16093 8.65613 4.06807 8.66844 3.98994 8.71376L2.14066 9.78662C1.51853 10.1476 1.07286 10.7327 0.885773 11.4343C0.698689 12.1358 0.793456 12.8665 1.15269 13.4917C1.6521 14.3609 2.56119 14.8473 3.49481 14.8473C3.95242 14.8473 4.41595 14.7304 4.83991 14.4845L4.94577 14.4231L6.98519 17.0986C7.12608 17.2835 7.32252 17.3923 7.55341 17.4133C7.57964 17.4157 7.60559 17.4168 7.63131 17.4168C7.83193 17.4168 8.01632 17.3448 8.16848 17.2061L8.73014 16.694C9.04267 16.4089 9.0856 15.9395 8.82997 15.6021L6.91236 13.0704C9.19002 12.124 11.4298 11.7532 13.2618 12.0237C13.5393 12.3429 13.9391 12.518 14.3479 12.518C14.592 12.518 14.8392 12.4557 15.0654 12.3245C15.7529 11.9256 15.9893 11.0391 15.5924 10.3483L14.1432 7.82601ZM14.0909 5.98575C14.2156 6.20272 14.2487 6.45548 14.1841 6.69747C14.1251 6.91899 13.9905 7.10698 13.8026 7.23334L12.8715 5.61289C13.3081 5.39728 13.8441 5.55625 14.0909 5.98575ZM3.49369 14.1639C2.79546 14.1638 2.11536 13.7999 1.7418 13.1499C1.47345 12.6829 1.40281 12.1364 1.54288 11.6112C1.68292 11.086 2.016 10.6483 2.48078 10.3786L4.03548 9.47668L6.05443 12.9905L4.49972 13.8925C4.1826 14.0765 3.83605 14.1639 3.49369 14.1639ZM8.27294 16.1877L7.71131 16.6998C7.68161 16.7269 7.65437 16.7361 7.6146 16.7324C7.57467 16.7288 7.54964 16.7149 7.52525 16.683L5.53991 14.0784L6.42982 13.5621L8.28862 16.0161C8.32882 16.0691 8.32205 16.1429 8.27294 16.1877ZM6.54802 12.4823L4.72031 9.30131C6.62418 7.84987 8.07782 6.15487 8.88161 4.4555L12.8051 11.2841C10.9386 11.1338 8.75085 11.5513 6.54802 12.4823ZM14.7252 11.7324C14.3625 11.9429 13.8972 11.8175 13.6878 11.4531L9.1772 3.60282C8.96783 3.2384 9.09253 2.77079 9.45517 2.56042C9.57106 2.49318 9.70015 2.45883 9.83141 2.45883C9.89788 2.45883 9.96496 2.46765 10.0311 2.48546C10.2279 2.53844 10.3918 2.66425 10.4926 2.83973L15.0032 10.69C15.2126 11.0544 15.0879 11.5221 14.7252 11.7324ZM15.0951 5.40316C15.0012 5.23968 15.0569 5.03064 15.2196 4.93627L16.5851 4.14409C16.7478 4.04969 16.9559 4.10574 17.0498 4.26919C17.1437 4.43267 17.088 4.64171 16.9253 4.73608L15.5598 5.52826C15.5062 5.55933 15.4477 5.57413 15.3901 5.57413C15.2725 5.57413 15.1581 5.51281 15.0951 5.40316ZM13.5209 3.20183L14.3525 1.75446C14.4464 1.59101 14.6544 1.53493 14.8172 1.62936C14.9799 1.72373 15.0356 1.93278 14.9417 2.09626L14.1101 3.54362C14.0471 3.65327 13.9327 3.71459 13.8151 3.71459C13.7575 3.71459 13.699 3.69982 13.6454 3.66872C13.4827 3.57435 13.427 3.36531 13.5209 3.20183ZM18.2087 7.532C18.2087 7.72078 18.0563 7.8738 17.8685 7.8738H16.2053C16.0175 7.8738 15.8651 7.72078 15.8651 7.532C15.8651 7.34323 16.0175 7.19021 16.2053 7.19021H17.8685C18.0563 7.19021 18.2087 7.34323 18.2087 7.532Z" fill="#9C2829" stroke="#9C2829" stroke-width="0.6"/>
</svg>
