<svg width="19" height="19" viewBox="0 0 19 19" fill="none" xmlns="http://www.w3.org/2000/svg">
<path d="M12.666 10.2917L16.8009 13.0483C16.8605 13.0879 16.9298 13.1107 17.0013 13.1141C17.0728 13.1175 17.1439 13.1015 17.207 13.0677C17.2701 13.0339 17.3229 12.9836 17.3597 12.9222C17.3965 12.8608 17.416 12.7905 17.416 12.7189V6.23042C17.416 6.16077 17.3977 6.09235 17.3628 6.03207C17.3279 5.97178 17.2777 5.92177 17.2174 5.88708C17.157 5.85238 17.0885 5.83424 17.0188 5.83447C16.9492 5.83471 16.8808 5.85332 16.8207 5.88842L12.666 8.31251" stroke="#375DFB" stroke-width="1.5" stroke-linecap="round" stroke-linejoin="round"/>
<path d="M11.083 4.75H3.16634C2.29189 4.75 1.58301 5.45888 1.58301 6.33333V12.6667C1.58301 13.5411 2.29189 14.25 3.16634 14.25H11.083C11.9575 14.25 12.6663 13.5411 12.6663 12.6667V6.33333C12.6663 5.45888 11.9575 4.75 11.083 4.75Z" stroke="#375DFB" stroke-width="1.5" stroke-linecap="round" stroke-linejoin="round"/>
</svg>
