<svg width="14" height="16" viewBox="0 0 14 16" fill="none" xmlns="http://www.w3.org/2000/svg">
<path d="M6.66667 0.728516C10.3487 0.728516 13.3333 3.71318 13.3333 7.39518C13.3333 11.0772 10.3487 14.0618 6.66667 14.0618C2.98467 14.0618 0 11.0772 0 7.39518C0 3.71318 2.98467 0.728516 6.66667 0.728516ZM6.66667 2.06185C5.25218 2.06185 3.89562 2.62375 2.89543 3.62395C1.89524 4.62414 1.33333 5.98069 1.33333 7.39518C1.33333 8.80967 1.89524 10.1662 2.89543 11.1664C3.89562 12.1666 5.25218 12.7285 6.66667 12.7285C8.08115 12.7285 9.43771 12.1666 10.4379 11.1664C11.4381 10.1662 12 8.80967 12 7.39518C12 5.98069 11.4381 4.62414 10.4379 3.62395C9.43771 2.62375 8.08115 2.06185 6.66667 2.06185ZM6.66667 3.39518C6.82996 3.3952 6.98756 3.45515 7.10958 3.56366C7.2316 3.67216 7.30956 3.82168 7.32867 3.98385L7.33333 4.06185V7.11918L9.138 8.92385C9.25756 9.04382 9.32698 9.2048 9.33215 9.3741C9.33732 9.5434 9.27786 9.70832 9.16583 9.83537C9.05381 9.96241 8.89763 10.0421 8.72902 10.0581C8.5604 10.0742 8.39199 10.0255 8.258 9.92185L8.19533 9.86652L6.19533 7.86652C6.09172 7.76281 6.02518 7.62785 6.006 7.48251L6 7.39518V4.06185C6 3.88504 6.07024 3.71547 6.19526 3.59044C6.32029 3.46542 6.48986 3.39518 6.66667 3.39518Z" fill="#7A7D84"/>
</svg>
