<svg width="13" height="10" viewBox="0 0 13 10" fill="none" xmlns="http://www.w3.org/2000/svg">
<g clip-path="url(#clip0_2899_792)">
<path d="M7.35449 4.99142L8.62184 6.34341L10.3262 7.35976L10.6226 4.99995L10.3262 2.69336L8.58919 3.5862L7.35449 4.99142Z" fill="#858585"/>
<path d="M0 7.14052V9.15142C0 9.61057 0.399344 9.98336 0.891414 9.98336H3.04606L3.49223 8.46398L3.04606 7.14052L1.56782 6.72412L0 7.14052Z" fill="white"/>
<path d="M3.04606 0L0 2.84284L1.56792 3.25825L3.04606 2.84284L3.4841 1.53739L3.04606 0Z" fill="#BABABA"/>
<path d="M0 7.14116H3.04601V2.84277H0V7.14116Z" fill="white"/>
<path d="M12.2721 1.2038L10.3262 2.69366V7.36001L12.2801 8.85565C12.5726 9.06949 13.0005 8.8746 13.0005 8.52759V1.52522C13.0005 1.17437 12.5624 0.980433 12.272 1.20385" fill="white"/>
<path d="M7.35408 4.9917V7.14042H3.0459V9.98326H9.43438C9.92645 9.98326 10.3257 9.61047 10.3257 9.15132V7.36004L7.35408 4.9917Z" fill="white"/>
<path d="M9.43438 0H3.0459V2.84284H7.35408V4.99156L10.3258 2.69346V0.831991C10.3258 0.372749 9.92645 4.73934e-05 9.43438 4.73934e-05" fill="white"/>
</g>
<defs>
<clipPath id="clip0_2899_792">
<rect width="13" height="10" fill="white"/>
</clipPath>
</defs>
</svg>
