<svg width="9" height="5" viewBox="0 0 9 5" fill="none" xmlns="http://www.w3.org/2000/svg">
<path fill-rule="evenodd" clip-rule="evenodd" d="M4.88318 4.50818C4.78161 4.60973 4.64386 4.66678 4.50023 4.66678C4.3566 4.66678 4.21885 4.60973 4.11727 4.50818L1.05306 1.44398C1.00133 1.39401 0.96006 1.33424 0.931672 1.26815C0.903283 1.20207 0.888341 1.13099 0.887716 1.05907C0.887091 0.987147 0.900796 0.91582 0.928031 0.849252C0.955267 0.782683 0.995487 0.722204 1.04635 0.671346C1.0972 0.620487 1.15768 0.580267 1.22425 0.553031C1.29082 0.525796 1.36215 0.512091 1.43407 0.512716C1.50599 0.513341 1.57707 0.528283 1.64315 0.556672C1.70924 0.58506 1.76901 0.626325 1.81898 0.67806L4.50023 3.35931L7.18148 0.67806C7.28364 0.579391 7.42046 0.524794 7.56249 0.526028C7.70451 0.527262 7.84037 0.584228 7.94079 0.684658C8.04122 0.785087 8.09819 0.920944 8.09943 1.06297C8.10066 1.20499 8.04606 1.34182 7.94739 1.44398L4.88318 4.50818Z" fill="#007E48"/>
</svg>
