<svg width="17" height="17" viewBox="0 0 17 17" fill="none" xmlns="http://www.w3.org/2000/svg">
    <path d="M13.4582 2.83317H12.0415V2.12484C12.0415 1.93698 11.9669 1.75681 11.834 1.62397C11.7012 1.49113 11.521 1.4165 11.3332 1.4165C11.1453 1.4165 10.9651 1.49113 10.8323 1.62397C10.6995 1.75681 10.6248 1.93698 10.6248 2.12484V2.83317H6.37484V2.12484C6.37484 1.93698 6.30021 1.75681 6.16737 1.62397C6.03453 1.49113 5.85437 1.4165 5.6665 1.4165C5.47864 1.4165 5.29848 1.49113 5.16564 1.62397C5.0328 1.75681 4.95817 1.93698 4.95817 2.12484V2.83317H3.5415C2.97792 2.83317 2.43742 3.05705 2.0389 3.45557C1.64039 3.85408 1.4165 4.39459 1.4165 4.95817V13.4582C1.4165 14.0218 1.64039 14.5623 2.0389 14.9608C2.43742 15.3593 2.97792 15.5832 3.5415 15.5832H13.4582C14.0218 15.5832 14.5623 15.3593 14.9608 14.9608C15.3593 14.5623 15.5832 14.0218 15.5832 13.4582V4.95817C15.5832 4.39459 15.3593 3.85408 14.9608 3.45557C14.5623 3.05705 14.0218 2.83317 13.4582 2.83317ZM14.1665 13.4582C14.1665 13.646 14.0919 13.8262 13.959 13.959C13.8262 14.0919 13.646 14.1665 13.4582 14.1665H3.5415C3.35364 14.1665 3.17348 14.0919 3.04064 13.959C2.9078 13.8262 2.83317 13.646 2.83317 13.4582V8.49984H14.1665V13.4582ZM14.1665 7.08317H2.83317V4.95817C2.83317 4.77031 2.9078 4.59014 3.04064 4.4573C3.17348 4.32447 3.35364 4.24984 3.5415 4.24984H4.95817V4.95817C4.95817 5.14603 5.0328 5.3262 5.16564 5.45904C5.29848 5.59188 5.47864 5.6665 5.6665 5.6665C5.85437 5.6665 6.03453 5.59188 6.16737 5.45904C6.30021 5.3262 6.37484 5.14603 6.37484 4.95817V4.24984H10.6248V4.95817C10.6248 5.14603 10.6995 5.3262 10.8323 5.45904C10.9651 5.59188 11.1453 5.6665 11.3332 5.6665C11.521 5.6665 11.7012 5.59188 11.834 5.45904C11.9669 5.3262 12.0415 5.14603 12.0415 4.95817V4.24984H13.4582C13.646 4.24984 13.8262 4.32447 13.959 4.4573C14.0919 4.59014 14.1665 4.77031 14.1665 4.95817V7.08317Z" fill="#6C7278"/>
</svg>
    