<svg width="12" height="15" viewBox="0 0 12 15" fill="none" xmlns="http://www.w3.org/2000/svg">
<path fill-rule="evenodd" clip-rule="evenodd" d="M0.666992 2.3335C0.666992 1.80306 0.877706 1.29436 1.25278 0.919283C1.62785 0.54421 2.13656 0.333496 2.66699 0.333496H9.33366C9.86409 0.333496 10.3728 0.54421 10.7479 0.919283C11.1229 1.29436 11.3337 1.80306 11.3337 2.3335V13.0188C11.3337 13.8322 10.4137 14.3055 9.75233 13.8328L6.00033 11.1528L2.24833 13.8328C1.58633 14.3062 0.666992 13.8328 0.666992 13.0195V2.3335ZM2.66699 1.66683C2.49018 1.66683 2.32061 1.73707 2.19559 1.86209C2.07056 1.98712 2.00033 2.15669 2.00033 2.3335V12.3715L5.41899 9.9295C5.58861 9.80831 5.79186 9.74316 6.00033 9.74316C6.20879 9.74316 6.41204 9.80831 6.58166 9.9295L10.0003 12.3715V2.3335C10.0003 2.15669 9.93009 1.98712 9.80506 1.86209C9.68004 1.73707 9.51047 1.66683 9.33366 1.66683H2.66699Z" fill="#6C7278"/>
</svg>
