<svg width="15" height="15" viewBox="0 0 15 15" fill="none" xmlns="http://www.w3.org/2000/svg">
<path d="M13.75 3.23751L6.61875 10.375L3.96875 7.72501L4.85 6.84376L6.61875 8.61251L12.8687 2.36251L13.75 3.23751ZM12.3688 6.38751C12.45 6.74376 12.5 7.11876 12.5 7.50001C12.5 10.2625 10.2625 12.5 7.5 12.5C4.7375 12.5 2.5 10.2625 2.5 7.50001C2.5 4.73751 4.7375 2.50001 7.5 2.50001C8.4875 2.50001 9.4 2.78751 10.175 3.28126L11.075 2.38126C10.029 1.64347 8.77999 1.24824 7.5 1.25001C4.05 1.25001 1.25 4.05001 1.25 7.50001C1.25 10.95 4.05 13.75 7.5 13.75C10.95 13.75 13.75 10.95 13.75 7.50001C13.75 6.75626 13.6125 6.04376 13.375 5.38126L12.3688 6.38751Z" fill="#00C370"/>
</svg>
