<svg width="13" height="13" viewBox="0 0 13 13" fill="none" xmlns="http://www.w3.org/2000/svg">
<path fill-rule="evenodd" clip-rule="evenodd" d="M6.11681 4.49182C6.21839 4.39027 6.35614 4.33322 6.49977 4.33322C6.6434 4.33322 6.78115 4.39027 6.88273 4.49182L9.94694 7.55602C9.99867 7.60599 10.0399 7.66576 10.0683 7.73185C10.0967 7.79793 10.1117 7.86901 10.1123 7.94093C10.1129 8.01285 10.0992 8.08418 10.072 8.15075C10.0447 8.21732 10.0045 8.2778 9.95365 8.32865C9.9028 8.37951 9.84232 8.41973 9.77575 8.44697C9.70918 8.4742 9.63785 8.48791 9.56593 8.48728C9.49401 8.48666 9.42293 8.47172 9.35685 8.44333C9.29076 8.41494 9.23099 8.37368 9.18102 8.32194L6.49977 5.64069L3.81852 8.32194C3.71636 8.42061 3.57954 8.47521 3.43751 8.47397C3.29549 8.47274 3.15963 8.41577 3.05921 8.31534C2.95878 8.21491 2.90181 8.07906 2.90057 7.93703C2.89934 7.79501 2.95394 7.65818 3.05261 7.55602L6.11681 4.49182Z" fill="#007E48"/>
</svg>
