<svg width="20" height="20" viewBox="0 0 20 20" fill="none" xmlns="http://www.w3.org/2000/svg">
<path fill-rule="evenodd" clip-rule="evenodd" d="M13.0893 9.41071C13.2455 9.56698 13.3333 9.77891 13.3333 9.99988C13.3333 10.2208 13.2455 10.4328 13.0893 10.589L8.37512 15.3032C8.29825 15.3828 8.2063 15.4463 8.10463 15.49C8.00296 15.5336 7.89361 15.5566 7.78296 15.5576C7.67231 15.5585 7.56258 15.5375 7.46016 15.4956C7.35775 15.4537 7.2647 15.3918 7.18646 15.3135C7.10822 15.2353 7.04634 15.1423 7.00444 15.0398C6.96254 14.9374 6.94145 14.8277 6.94241 14.717C6.94338 14.6064 6.96636 14.497 7.01004 14.3954C7.05371 14.2937 7.1172 14.2017 7.19679 14.1249L11.3218 9.99988L7.19679 5.87488C7.04499 5.71771 6.961 5.50721 6.96289 5.28871C6.96479 5.07021 7.05243 4.8612 7.20694 4.70669C7.36145 4.55219 7.57046 4.46455 7.78895 4.46265C8.00745 4.46075 8.21795 4.54474 8.37512 4.69654L13.0893 9.41071Z" fill="#FF0000"/>
</svg>
