<svg width="144" height="144" viewBox="0 0 144 144" fill="none" xmlns="http://www.w3.org/2000/svg">
<circle cx="72" cy="72" r="72" fill="#007E48" fill-opacity="0.1"/>
<circle cx="72" cy="72" r="50" fill="#007E48"/>
<mask id="mask0_2529_26" style="mask-type:luminance" maskUnits="userSpaceOnUse" x="53" y="53" width="38" height="38">
<path d="M71.9997 88.6668C74.1888 88.6695 76.3568 88.2397 78.3793 87.4019C80.4017 86.5642 82.2387 85.335 83.7847 83.7852C85.3346 82.2392 86.5637 80.4022 87.4014 78.3798C88.2392 76.3573 88.6691 74.1893 88.6664 72.0002C88.6691 69.8111 88.2392 67.643 87.4014 65.6206C86.5637 63.5981 85.3346 61.7612 83.7847 60.2152C82.2387 58.6653 80.4017 57.4362 78.3793 56.5984C76.3568 55.7607 74.1888 55.3308 71.9997 55.3335C69.8106 55.3308 67.6425 55.7607 65.6201 56.5984C63.5976 57.4362 61.7607 58.6653 60.2147 60.2152C58.6648 61.7612 57.4357 63.5981 56.5979 65.6206C55.7602 67.643 55.3303 69.8111 55.333 72.0002C55.3303 74.1893 55.7602 76.3573 56.5979 78.3798C57.4357 80.4022 58.6648 82.2392 60.2147 83.7852C61.7607 85.335 63.5976 86.5642 65.6201 87.4019C67.6425 88.2397 69.8106 88.6695 71.9997 88.6668Z" fill="white" stroke="white" stroke-width="4" stroke-linejoin="round"/>
<path d="M65.333 72L70.333 77L80.333 67" stroke="black" stroke-width="4" stroke-linecap="round" stroke-linejoin="round"/>
</mask>
<g mask="url(#mask0_2529_26)">
<path d="M52 52H92V92H52V52Z" fill="white"/>
</g>
</svg>
