<svg width="14" height="14" viewBox="0 0 14 14" fill="none" xmlns="http://www.w3.org/2000/svg">
<path d="M11.2857 7.71429H7.71429V11.2857C7.71429 11.6786 7.39286 12 7 12C6.60714 12 6.28571 11.6786 6.28571 11.2857V7.71429H2.71429C2.32143 7.71429 2 7.39286 2 7C2 6.60714 2.32143 6.28571 2.71429 6.28571H6.28571V2.71429C6.28571 2.32143 6.60714 2 7 2C7.39286 2 7.71429 2.32143 7.71429 2.71429V6.28571H11.2857C11.6786 6.28571 12 6.60714 12 7C12 7.39286 11.6786 7.71429 11.2857 7.71429Z" fill="#007E48"/>
</svg>
