<svg width="16" height="16" viewBox="0 0 16 16" fill="none" xmlns="http://www.w3.org/2000/svg">
<path d="M6.66623 11.7L5.48623 12.8467C5.17681 13.1561 4.75715 13.3299 4.31957 13.3299C3.88198 13.3299 3.46232 13.1561 3.1529 12.8467C2.84348 12.5373 2.66965 12.1176 2.66965 11.68C2.66965 11.2424 2.84348 10.8228 3.1529 10.5133L6.17957 7.48001C6.47664 7.18197 6.87691 7.00953 7.29757 6.99836C7.71824 6.98719 8.1271 7.13815 8.43957 7.42001L8.51957 7.48667C8.64599 7.61044 8.81639 7.67892 8.9933 7.67704C9.17021 7.67517 9.33913 7.60309 9.4629 7.47667C9.58667 7.35025 9.65515 7.17985 9.65327 7.00294C9.65139 6.82603 9.57932 6.65711 9.4529 6.53334C9.41507 6.48485 9.37503 6.43814 9.3329 6.39334C8.7638 5.89822 8.02779 5.63791 7.27394 5.66514C6.5201 5.69237 5.80479 6.00511 5.2729 6.54001L2.20623 9.57334C1.68514 10.1405 1.40331 10.8871 1.41962 11.6572C1.43592 12.4272 1.74909 13.1612 2.29372 13.7059C2.83835 14.2505 3.57234 14.5637 4.3424 14.58C5.11245 14.5963 5.85904 14.3144 6.42623 13.7933L7.57957 12.6667C7.69344 12.5424 7.75604 12.3797 7.75477 12.2112C7.7535 12.0426 7.68845 11.8808 7.57271 11.7584C7.45697 11.6359 7.29912 11.5617 7.13094 11.5509C6.96276 11.5401 6.79672 11.5934 6.66623 11.7ZM13.7929 2.20667C13.2321 1.64935 12.4735 1.33653 11.6829 1.33653C10.8923 1.33653 10.1337 1.64935 9.5729 2.20667L8.41957 3.33334C8.30569 3.45757 8.24309 3.62033 8.24436 3.78885C8.24563 3.95738 8.31068 4.11916 8.42643 4.24166C8.54217 4.36416 8.70001 4.43828 8.86819 4.44911C9.03637 4.45993 9.20241 4.40666 9.3329 4.30001L10.4862 3.15334C10.7957 2.84392 11.2153 2.67009 11.6529 2.67009C12.0905 2.67009 12.5101 2.84392 12.8196 3.15334C13.129 3.46276 13.3028 3.88242 13.3028 4.32001C13.3028 4.75759 13.129 5.17725 12.8196 5.48667L9.7929 8.52001C9.49582 8.81805 9.09555 8.99049 8.67489 9.00166C8.25423 9.01282 7.84537 8.86186 7.5329 8.58001L7.4529 8.51334C7.32648 8.38957 7.15607 8.32109 6.97916 8.32297C6.80225 8.32484 6.63333 8.39692 6.50957 8.52334C6.3858 8.64976 6.31732 8.82017 6.31919 8.99708C6.32107 9.17399 6.39315 9.34291 6.51957 9.46667C6.56822 9.51596 6.6194 9.56269 6.6729 9.60667C7.24268 10.1003 7.97838 10.3596 8.73177 10.3324C9.48515 10.3052 10.2002 9.99347 10.7329 9.46001L13.7662 6.42667C14.3271 5.86939 14.6447 5.11283 14.6497 4.32217C14.6547 3.53152 14.3467 2.771 13.7929 2.20667Z" fill="black"/>
</svg>
