<svg width="18" height="19" viewBox="0 0 18 19" fill="none" xmlns="http://www.w3.org/2000/svg">
<g clip-path="url(#clip0_2575_147)">
<path d="M16.3125 0.921871H1.6875C1.35567 0.918494 1.03605 1.04689 0.798777 1.27889C0.561503 1.5109 0.425955 1.82755 0.421875 2.15937V16.8434C0.426693 17.1748 0.562565 17.4907 0.799758 17.7221C1.03695 17.9535 1.35615 18.0815 1.6875 18.0781H16.3125C16.6444 18.0808 16.9638 17.9519 17.2009 17.7198C17.4381 17.4876 17.5737 17.171 17.5781 16.8392V2.15515C17.5722 1.8243 17.4359 1.50916 17.1989 1.27822C16.962 1.04729 16.6434 0.919225 16.3125 0.921871Z" fill="#0076B2"/>
<path d="M2.96153 7.35265H5.50825V15.5469H2.96153V7.35265ZM4.2356 3.27453C4.52769 3.27453 4.81323 3.36116 5.05608 3.52347C5.29893 3.68578 5.48818 3.91647 5.5999 4.18636C5.71161 4.45625 5.74077 4.75321 5.68368 5.03967C5.6266 5.32613 5.48583 5.58923 5.27919 5.79568C5.07254 6.00212 4.80931 6.14264 4.5228 6.19945C4.23628 6.25627 3.93935 6.22683 3.66957 6.11485C3.39978 6.00288 3.16927 5.81341 3.0072 5.5704C2.84512 5.3274 2.75876 5.04178 2.75903 4.74968C2.75941 4.35832 2.91514 3.98311 3.19201 3.70651C3.46887 3.4299 3.84423 3.27453 4.2356 3.27453ZM7.10575 7.35265H9.547V8.47765H9.58075C9.92106 7.83359 10.7508 7.15437 11.9897 7.15437C14.5687 7.14875 15.0468 8.84609 15.0468 11.0469V15.5469H12.5001V11.5602C12.5001 10.6109 12.4833 9.3889 11.1768 9.3889C9.87044 9.3889 9.64825 10.4239 9.64825 11.4983V15.5469H7.10575V7.35265Z" fill="white"/>
</g>
<defs>
<clipPath id="clip0_2575_147">
<rect width="18" height="18" fill="white" transform="translate(0 0.5)"/>
</clipPath>
</defs>
</svg>
