<svg width="102" height="102" viewBox="0 0 102 102" fill="none" xmlns="http://www.w3.org/2000/svg">
<rect width="102" height="102" rx="51" fill="#007E48"/>
<path d="M53.0781 64.5H48.0869V46.4277H47.9385L40.665 64.2402H37.1396L29.8662 46.4277H29.7178V64.5H24.7266V37.7256H31.2207L38.8281 56.707H38.9766L46.584 37.7256H53.0781V64.5ZM56.5293 56.874H61.9287C62.0524 57.9626 62.6276 58.847 63.6543 59.5273C64.6934 60.1953 65.9613 60.5293 67.458 60.5293C68.9424 60.5293 70.1484 60.2139 71.0762 59.583C72.0163 58.9398 72.4863 58.1234 72.4863 57.1338C72.4863 56.2679 72.14 55.569 71.4473 55.0371C70.7546 54.5052 69.598 54.0599 67.9775 53.7012L64.4893 52.9404C59.5785 51.889 57.123 49.3965 57.123 45.4629C57.123 43.0137 58.0755 41.0345 59.9805 39.5254C61.8978 38.0163 64.3594 37.2617 67.3652 37.2617C70.4577 37.2617 72.9255 37.9977 74.7686 39.4697C76.6117 40.9294 77.5579 42.8776 77.6074 45.3145H72.3564C72.2699 44.1888 71.7689 43.3044 70.8535 42.6611C69.9505 42.0055 68.7939 41.6777 67.3838 41.6777C65.9984 41.6777 64.8789 41.9808 64.0254 42.5869C63.1842 43.193 62.7637 43.9909 62.7637 44.9805C62.7637 45.7969 63.1038 46.4587 63.7842 46.9658C64.4769 47.473 65.5964 47.9059 67.1426 48.2646L70.3896 48.9512C73.0739 49.5202 75.0283 50.4108 76.2529 51.623C77.4775 52.8229 78.0898 54.4434 78.0898 56.4844C78.0898 59.082 77.1126 61.1478 75.1582 62.6816C73.2038 64.2031 70.5628 64.9639 67.2354 64.9639C64.0068 64.9639 61.4339 64.2464 59.5166 62.8115C57.6117 61.3643 56.6159 59.3851 56.5293 56.874Z" fill="white"/>
</svg>
