<svg width="17" height="18" viewBox="0 0 17 18" fill="none" xmlns="http://www.w3.org/2000/svg">
<path fill-rule="evenodd" clip-rule="evenodd" d="M9.00079 11.6258C8.86795 11.7586 8.68782 11.8332 8.49999 11.8332C8.31217 11.8332 8.13204 11.7586 7.9992 11.6258L3.99216 7.61874C3.92451 7.5534 3.87055 7.47524 3.83342 7.38882C3.7963 7.3024 3.77676 7.20945 3.77594 7.1154C3.77512 7.02135 3.79305 6.92807 3.82866 6.84102C3.86428 6.75397 3.91687 6.67488 3.98338 6.60837C4.04989 6.54187 4.12897 6.48927 4.21603 6.45366C4.30308 6.41804 4.39635 6.40012 4.4904 6.40094C4.58446 6.40175 4.6774 6.42129 4.76382 6.45842C4.85024 6.49554 4.9284 6.5495 4.99374 6.61715L8.49999 10.1234L12.0062 6.61715C12.1398 6.48813 12.3188 6.41673 12.5045 6.41834C12.6902 6.41996 12.8679 6.49445 12.9992 6.62578C13.1305 6.75711 13.205 6.93477 13.2066 7.1205C13.2083 7.30622 13.1369 7.48515 13.0078 7.61874L9.00079 11.6258Z" fill="black"/>
</svg>
