<svg width="69" height="69" viewBox="0 0 69 69" fill="none" xmlns="http://www.w3.org/2000/svg">
<path d="M37.0013 43.3262L29.6987 36.11L29.785 36.0237C34.6572 30.6115 38.2964 24.2061 40.4512 17.25H48.875V11.5H28.75V5.75H23V11.5H2.875V17.25H34.9888C33.0625 22.77 30.015 28.0313 25.875 32.6313C23.2013 29.67 20.9875 26.4212 19.2337 23H13.4838C15.5825 27.6863 18.4575 32.1138 22.0513 36.11L7.4175 50.5425L11.5 54.625L25.875 40.25L34.8162 49.1913L37.0013 43.3262ZM53.1875 28.75H47.4375L34.5 63.25H40.25L43.47 54.625H57.1263L60.375 63.25H66.125L53.1875 28.75ZM45.655 48.875L50.3125 36.4263L54.97 48.875H45.655Z" fill="white"/>
</svg>
