<svg width="16" height="16" viewBox="0 0 16 16" fill="none" xmlns="http://www.w3.org/2000/svg">
<path d="M8 8.66699C9.10457 8.66699 10 7.77156 10 6.66699C10 5.56242 9.10457 4.66699 8 4.66699C6.89543 4.66699 6 5.56242 6 6.66699C6 7.77156 6.89543 8.66699 8 8.66699Z" stroke="#1A1C1E" stroke-width="1.4" stroke-linecap="round" stroke-linejoin="round"/>
<path d="M8.00033 1.3335C6.58584 1.3335 5.22928 1.8954 4.22909 2.89559C3.2289 3.89579 2.66699 5.25234 2.66699 6.66683C2.66699 7.92816 2.93499 8.7535 3.66699 9.66683L8.00033 14.6668L12.3337 9.66683C13.0657 8.7535 13.3337 7.92816 13.3337 6.66683C13.3337 5.25234 12.7718 3.89579 11.7716 2.89559C10.7714 1.8954 9.41481 1.3335 8.00033 1.3335Z" stroke="#1A1C1E" stroke-width="1.4" stroke-linecap="round" stroke-linejoin="round"/>
</svg>
