<svg width="16" height="16" viewBox="0 0 16 16" fill="none" xmlns="http://www.w3.org/2000/svg">
<path d="M2.55526 2.66683H5.54859L6.51326 5.07883L4.96326 6.11216C4.87198 6.17306 4.79715 6.25555 4.7454 6.35231C4.69365 6.44907 4.66658 6.5571 4.66659 6.66683C4.66859 6.7295 4.66659 6.6675 4.66659 6.6675V6.6815C4.66693 6.71131 4.66826 6.74111 4.67059 6.77083C4.67415 6.82594 4.68193 6.89927 4.69393 6.99083C4.71993 7.17083 4.76993 7.41883 4.86726 7.71083C5.06326 8.2975 5.44726 9.05683 6.19526 9.80483C6.94326 10.5528 7.70259 10.9368 8.28859 11.1328C8.58126 11.2302 8.82859 11.2795 9.00993 11.3062C9.11221 11.321 9.21527 11.3299 9.31859 11.3328L9.32726 11.3335H9.33259C9.33259 11.3335 9.40726 11.3295 9.33326 11.3335C9.45703 11.3334 9.57835 11.2989 9.68361 11.2338C9.78887 11.1687 9.87393 11.0756 9.92926 10.9648L10.3759 10.0715L13.3333 10.5648V13.4448C11.9259 13.6482 8.12459 13.8488 5.13793 10.8622C2.15126 7.8755 2.35126 4.0735 2.55526 2.66683ZM6.04859 6.99083L7.25326 6.18816C7.50776 6.01841 7.69614 5.76631 7.78681 5.47414C7.87749 5.18197 7.86493 4.86751 7.75126 4.5835L6.78659 2.1715C6.6876 1.9241 6.51675 1.71204 6.29609 1.56267C6.07542 1.4133 5.81506 1.33348 5.54859 1.3335H2.52059C1.91459 1.3335 1.34459 1.75416 1.24526 2.4115C1.01859 3.90616 0.71126 8.32083 4.19526 11.8048C7.67926 15.2888 12.0939 14.9808 13.5886 14.7548C14.2459 14.6548 14.6666 14.0855 14.6666 13.4795V10.5648C14.6666 10.2492 14.5547 9.9438 14.3507 9.70295C14.1467 9.4621 13.8639 9.30142 13.5526 9.2495L10.5953 8.75683C10.314 8.70988 10.0251 8.75434 9.77094 8.88369C9.5168 9.01304 9.31083 9.22046 9.18326 9.4755L8.95259 9.9375C8.87107 9.91722 8.79035 9.89387 8.71059 9.8675C8.29726 9.73016 7.72326 9.4475 7.13793 8.86216C6.55259 8.27683 6.26993 7.70283 6.13259 7.28883C6.10022 7.19084 6.07241 7.0914 6.04926 6.99083H6.04859Z" fill="#1A1C1E"/>
</svg>
