<svg width="23" height="22" viewBox="0 0 23 22" fill="none" xmlns="http://www.w3.org/2000/svg">
<path d="M10.4443 2.24014C10.7709 1.97517 11.1787 1.83057 11.5993 1.83057C12.0199 1.83057 12.4277 1.97517 12.7543 2.24014L19.7466 7.90514C20.0646 8.16262 20.3211 8.4878 20.4974 8.85697C20.6737 9.22614 20.7655 9.63001 20.7659 10.0391V18.3331C20.7659 18.8194 20.5728 19.2857 20.229 19.6295C19.8852 19.9733 19.4188 20.1665 18.9326 20.1665H15.266C14.7797 20.1665 14.3134 19.9733 13.9696 19.6295C13.6258 19.2857 13.4326 18.8194 13.4326 18.3331V12.8331H9.76595V18.3331C9.76595 18.8194 9.5728 19.2857 9.22898 19.6295C8.88516 19.9733 8.41885 20.1665 7.93262 20.1665H4.26595C3.77972 20.1665 3.3134 19.9733 2.96959 19.6295C2.62577 19.2857 2.43262 18.8194 2.43262 18.3331V10.041C2.43254 9.63123 2.52402 9.22664 2.70038 8.85679C2.87674 8.48694 3.13352 8.16118 3.45195 7.90331L10.4443 2.24014ZM18.5934 9.32781L11.5993 3.66648L4.60512 9.32781C4.49901 9.41389 4.41348 9.5226 4.3548 9.646C4.29611 9.76939 4.26576 9.90434 4.26595 10.041V18.3331H7.93262V12.8331C7.93262 12.3469 8.12577 11.8806 8.46959 11.5368C8.81341 11.193 9.27972 10.9998 9.76595 10.9998H13.4326C13.9188 10.9998 14.3852 11.193 14.729 11.5368C15.0728 11.8806 15.266 12.3469 15.266 12.8331V18.3331H18.9326V10.041C18.9328 9.90434 18.9025 9.76939 18.8438 9.646C18.7851 9.5226 18.6996 9.41389 18.5934 9.32781Z" fill="#484848"/>
</svg>
