<svg width="29" height="28" viewBox="0 0 29 28" fill="none" xmlns="http://www.w3.org/2000/svg">
<path d="M21.442 11.533C21.9505 11.2114 22.3145 10.717 22.4709 10.1306C22.6352 9.51407 22.5509 8.87009 22.2333 8.31733C21.5932 7.2034 20.1893 6.80342 19.0662 7.39813L16.9305 3.68114C16.648 3.18953 16.1903 2.83745 15.6417 2.68971C15.093 2.54198 14.5213 2.61693 14.0322 2.90081C13.5429 3.18464 13.1925 3.64457 13.0455 4.19582C12.9347 4.61122 12.9499 5.03972 13.0849 5.43603C12.0705 8.00479 9.92349 10.6245 7.00856 12.8593C6.96335 12.8289 6.91337 12.8054 6.85973 12.7909C6.73136 12.7563 6.59451 12.7745 6.47936 12.8413L3.75412 14.4223C2.83728 14.9542 2.18051 15.8165 1.90481 16.8504C1.6291 17.8843 1.76876 18.9611 2.29816 19.8824C3.03413 21.1633 4.37385 21.8802 5.7497 21.8802C6.42407 21.8802 7.10716 21.7079 7.73196 21.3454L7.88795 21.255L10.8934 25.1979C11.101 25.4703 11.3905 25.6306 11.7308 25.6616C11.7694 25.6651 11.8077 25.6668 11.8456 25.6668C12.1412 25.6668 12.413 25.5606 12.6372 25.3562L13.4649 24.6016C13.9255 24.1815 13.9888 23.4897 13.612 22.9924L10.7861 19.2616C14.1426 17.8669 17.4434 17.3204 20.1432 17.7191C20.5522 18.1894 21.1413 18.4476 21.7438 18.4475C22.1035 18.4475 22.4678 18.3556 22.8011 18.1623C23.8143 17.5746 24.1627 16.2681 23.5777 15.25L21.442 11.533ZM21.365 8.82103C21.5487 9.14078 21.5975 9.51327 21.5024 9.86988C21.4154 10.1963 21.217 10.4734 20.9401 10.6596L19.568 8.27155C20.2114 7.95381 21.0013 8.18808 21.365 8.82103ZM5.74805 20.873C4.71908 20.8729 3.71682 20.3367 3.16632 19.3787C2.77086 18.6905 2.66675 17.8852 2.87317 17.1112C3.07955 16.3372 3.5704 15.6921 4.25535 15.2948L6.54649 13.9656L9.52177 19.1438L7.23063 20.473C6.76329 20.7442 6.25259 20.873 5.74805 20.873ZM12.7912 23.8555L11.9635 24.6102C11.9197 24.6501 11.8796 24.6636 11.821 24.6582C11.7621 24.6529 11.7252 24.6324 11.6893 24.5853L8.76354 20.747L10.075 19.9862L12.8143 23.6026C12.8735 23.6807 12.8635 23.7895 12.7912 23.8555ZM10.2492 18.3949L7.55571 13.7071C10.3614 11.5682 12.5036 9.07026 13.6881 6.56592L19.4702 16.6291C16.7195 16.4077 13.4954 17.0229 10.2492 18.3949ZM22.2998 17.2898C21.7652 17.6 21.0795 17.4152 20.7709 16.8782L14.1237 5.30935C13.8152 4.7723 13.999 4.08319 14.5334 3.77317C14.7042 3.67409 14.8944 3.62347 15.0879 3.62347C15.1858 3.62347 15.2847 3.63646 15.3822 3.66271C15.6721 3.74078 15.9137 3.92619 16.0622 4.18479L22.7094 15.7536C23.018 16.2907 22.8342 16.9798 22.2998 17.2898ZM22.8449 7.96248C22.7065 7.72156 22.7886 7.4135 23.0284 7.27443L25.0407 6.107C25.2805 5.96788 25.5871 6.05049 25.7255 6.29136C25.8639 6.53228 25.7818 6.84034 25.542 6.97941L23.5297 8.14683C23.4508 8.19262 23.3645 8.21443 23.2795 8.21443C23.1062 8.21443 22.9378 8.12406 22.8449 7.96248ZM20.525 4.71841L21.7505 2.58545C21.8889 2.34458 22.1955 2.26192 22.4353 2.40109C22.675 2.54016 22.7572 2.84822 22.6187 3.08914L21.3932 5.22211C21.3004 5.38369 21.1319 5.47406 20.9586 5.47406C20.8736 5.47406 20.7874 5.4523 20.7085 5.40646C20.4687 5.26739 20.3866 4.95933 20.525 4.71841ZM27.4333 11.0997C27.4333 11.3779 27.2088 11.6034 26.932 11.6034H24.4809C24.2041 11.6034 23.9797 11.3779 23.9797 11.0997C23.9797 10.8215 24.2041 10.596 24.4809 10.596H26.932C27.2088 10.596 27.4333 10.8215 27.4333 11.0997Z" fill="#9C2829" stroke="#9C2829" stroke-width="0.4"/>
</svg>
