<svg width="28" height="28" viewBox="0 0 28 28" fill="none" xmlns="http://www.w3.org/2000/svg">
<path d="M8.344 5.1135L8.3615 5.103L8.442 5.05575C8.51317 5.01258 8.62108 4.9525 8.76575 4.8755C9.0545 4.72325 9.4745 4.5185 9.99425 4.3155C11.0425 3.899 12.4618 3.5 14 3.5C15.5382 3.5 16.9575 3.9025 18.0057 4.31375C18.5399 4.5244 19.0586 4.77234 19.558 5.05575C19.5942 5.07558 19.6204 5.09133 19.6367 5.103L19.6542 5.1135H19.656C19.8518 5.23262 20.0864 5.27018 20.3096 5.21812C20.5328 5.16606 20.7266 5.02853 20.8495 4.83509C20.9723 4.64164 21.0144 4.40772 20.9666 4.1836C20.9188 3.95948 20.7851 3.76304 20.594 3.6365L20.5888 3.633L20.58 3.62775L20.5485 3.6085L20.4417 3.54375C19.8649 3.21577 19.2655 2.92921 18.648 2.68625C17.472 2.2225 15.8287 1.75 14 1.75C12.1713 1.75 10.5262 2.2225 9.35375 2.68625C8.73567 2.92914 8.13565 3.21569 7.55825 3.54375L7.4515 3.6085L7.42 3.626L7.41125 3.633L7.40775 3.63475C7.21166 3.7589 7.07291 3.95587 7.02204 4.18232C6.97117 4.40877 7.01235 4.64616 7.1365 4.84225C7.26065 5.03834 7.45762 5.17709 7.68407 5.22796C7.91052 5.27883 8.14791 5.23765 8.344 5.1135ZM7 7C6.07174 7 5.1815 7.36875 4.52513 8.02513C3.86875 8.6815 3.5 9.57174 3.5 10.5V17.5C3.5 18.4283 3.86875 19.3185 4.52513 19.9749C5.1815 20.6313 6.07174 21 7 21H14.875C15.8033 21 16.6935 20.6313 17.3499 19.9749C18.0063 19.3185 18.375 18.4283 18.375 17.5V17.2585L23.191 20.0095C23.3241 20.0855 23.4747 20.1252 23.628 20.1247C23.7812 20.1242 23.9316 20.0834 24.0641 20.0065C24.1967 19.9297 24.3067 19.8193 24.3832 19.6865C24.4597 19.5538 24.5 19.4032 24.5 19.25V8.75C24.5 8.59677 24.4597 8.44624 24.3832 8.31347C24.3067 8.1807 24.1967 8.07035 24.0641 7.99345C23.9316 7.91655 23.7812 7.8758 23.628 7.87529C23.4747 7.87477 23.3241 7.9145 23.191 7.9905L18.375 10.7415V10.5C18.375 9.57174 18.0063 8.6815 17.3499 8.02513C16.6935 7.36875 15.8033 7 14.875 7H7ZM18.375 12.7575L22.75 10.2585V17.7415L18.375 15.2425V12.7575ZM5.25 10.5C5.25 10.0359 5.43437 9.59075 5.76256 9.26256C6.09075 8.93437 6.53587 8.75 7 8.75H14.875C15.3391 8.75 15.7842 8.93437 16.1124 9.26256C16.4406 9.59075 16.625 10.0359 16.625 10.5V17.5C16.625 17.9641 16.4406 18.4092 16.1124 18.7374C15.7842 19.0656 15.3391 19.25 14.875 19.25H7C6.53587 19.25 6.09075 19.0656 5.76256 18.7374C5.43437 18.4092 5.25 17.9641 5.25 17.5V10.5ZM8.34575 22.8883L8.344 22.8865C8.14823 22.7674 7.91355 22.7298 7.69039 22.7819C7.46722 22.8339 7.27338 22.9715 7.15053 23.1649C7.02768 23.3584 6.98562 23.5923 7.03339 23.8164C7.08116 24.0405 7.21495 24.237 7.406 24.3635L7.41125 24.367L7.42 24.3722L7.4515 24.3915C7.476 24.4078 7.51158 24.4294 7.55825 24.4563C7.65158 24.5099 7.78225 24.5823 7.95025 24.6733C8.2845 24.8482 8.764 25.081 9.35375 25.3138C10.5262 25.7758 12.1713 26.25 14 26.25C15.8305 26.25 17.4737 25.7775 18.6462 25.3138C19.2643 25.0709 19.8643 24.7843 20.4417 24.4563L20.5485 24.3915L20.58 24.374L20.5888 24.367L20.5923 24.3652C20.7883 24.2409 20.9287 24.0437 20.9795 23.8171C21.0302 23.5904 20.9888 23.353 20.8644 23.1569C20.74 22.9608 20.5428 22.8221 20.3162 22.7714C20.0896 22.7207 19.8521 22.7621 19.656 22.8865L19.6385 22.8988L19.558 22.9443C19.4868 22.9874 19.3789 23.0475 19.2343 23.1245C18.8354 23.3336 18.4252 23.5206 18.0057 23.6845C16.9575 24.101 15.5382 24.5 14 24.5C12.4618 24.5 11.0425 24.0975 9.99425 23.6862C9.46008 23.4756 8.94139 23.2277 8.442 22.9443L8.36325 22.897L8.34575 22.8883Z" fill="#484848"/>
</svg>
