<svg width="23" height="22" viewBox="0 0 23 22" xmlns="http://www.w3.org/2000/svg">
<path d="M17.908 12.3752H14.356C13.8851 12.3747 13.4333 12.5609 13.0996 12.8931C12.7658 13.2253 12.5775 13.6762 12.5758 14.1471V17.6992C12.5755 17.933 12.6214 18.1646 12.7108 18.3807C12.8002 18.5968 12.9313 18.7931 13.0966 18.9585C13.262 19.1238 13.4583 19.2549 13.6744 19.3443C13.8905 19.4337 14.1221 19.4796 14.356 19.4793H17.908C18.3787 19.4774 18.8294 19.2889 19.1614 18.9552C19.4934 18.6215 19.6795 18.1699 19.679 17.6992V14.1471C19.6793 13.9144 19.6336 13.684 19.5447 13.4691C19.4558 13.2541 19.3254 13.0588 19.1609 12.8943C18.9964 12.7298 18.801 12.5993 18.5861 12.5104C18.3711 12.4215 18.1407 12.3758 17.908 12.3761M8.04379 12.3752H4.4917C4.02108 12.3778 3.57064 12.5667 3.2388 12.9004C2.90696 13.2341 2.7207 13.6856 2.7207 14.1562V17.7083C2.72046 17.941 2.76611 18.1714 2.85502 18.3863C2.94394 18.6013 3.07438 18.7967 3.23888 18.9612C3.40338 19.1257 3.59871 19.2561 3.81369 19.345C4.02866 19.4339 4.25907 19.4796 4.4917 19.4793H8.04379C8.51448 19.4798 8.96617 19.2937 9.29986 18.9617C9.63355 18.6297 9.82201 18.179 9.82395 17.7083V14.1562C9.82419 13.9224 9.77831 13.6908 9.68894 13.4747C9.59956 13.2586 9.46844 13.0623 9.30309 12.8969C9.13774 12.7316 8.9414 12.6005 8.72531 12.5111C8.50922 12.4217 8.27763 12.3758 8.04379 12.3761M8.04379 2.521H4.4917C4.25907 2.52076 4.02866 2.5664 3.81369 2.65532C3.59871 2.74423 3.40338 2.87467 3.23888 3.03917C3.07438 3.20367 2.94394 3.399 2.85502 3.61398C2.76611 3.82896 2.72046 4.05936 2.7207 4.292V7.84408C2.72021 8.31477 2.90635 8.76646 3.23832 9.10015C3.57029 9.43384 4.02102 9.62231 4.4917 9.62425H8.04379C8.27763 9.62449 8.50922 9.57861 8.72531 9.48923C8.9414 9.39986 9.13774 9.26874 9.30309 9.10339C9.46844 8.93803 9.59956 8.74169 9.68894 8.52561C9.77831 8.30952 9.82419 8.07792 9.82395 7.84408V4.292C9.82201 3.82131 9.63355 3.37059 9.29986 3.03862C8.96617 2.70665 8.51448 2.52051 8.04379 2.521ZM17.908 2.521H14.356C13.8853 2.52051 13.4336 2.70665 13.0999 3.03862C12.7662 3.37059 12.5777 3.82131 12.5758 4.292V7.84408C12.576 8.31614 12.7637 8.76879 13.0975 9.10258C13.4312 9.43637 13.8839 9.624 14.356 9.62425H17.908C18.3787 9.62231 18.8294 9.43384 19.1614 9.10015C19.4934 8.76646 19.6795 8.31477 19.679 7.84408V4.292C19.6793 4.05936 19.6336 3.82896 19.5447 3.61398C19.4558 3.399 19.3254 3.20367 19.1609 3.03917C18.9964 2.87467 18.801 2.74423 18.5861 2.65532C18.3711 2.5664 18.1407 2.52076 17.908 2.521Z" stroke-width="1.5" stroke-linecap="round" stroke-linejoin="round"/>
</svg>
