<svg width="28" height="28" viewBox="0 0 28 28" fill="none" xmlns="http://www.w3.org/2000/svg">
<path fill-rule="evenodd" clip-rule="evenodd" d="M8.76341 21.5475C7.86262 21.7028 6.93826 21.468 6.22075 20.9017C5.50324 20.3354 5.06017 19.4908 5.00198 18.5786V8.77533C4.96007 7.74664 5.58577 6.8081 6.55145 6.45113C9.38778 5.41025 12.5721 6.20742 14.5835 8.46188V22.4523C13.2352 21.3189 10.9056 21.2505 8.76341 21.5475Z" stroke="#484848" stroke-width="1.5" stroke-linecap="round" stroke-linejoin="round"/>
<path fill-rule="evenodd" clip-rule="evenodd" d="M20.4031 21.5475C21.3039 21.7028 22.2282 21.468 22.9458 20.9017C23.6633 20.3354 24.1063 19.4908 24.1645 18.5786V8.77533C24.2064 7.74664 23.5807 6.8081 22.6151 6.45113C19.7787 5.41025 16.5944 6.20742 14.583 8.46188V22.4523C15.9313 21.3189 18.2609 21.2505 20.4031 21.5475Z" stroke="#484848" stroke-width="1.5" stroke-linecap="round" stroke-linejoin="round"/>
<path d="M11.1604 13.6206C11.5746 13.6206 11.9104 13.2848 11.9104 12.8706C11.9104 12.4564 11.5746 12.1206 11.1604 12.1206V13.6206ZM8.42285 12.1206C8.00864 12.1206 7.67285 12.4564 7.67285 12.8706C7.67285 13.2848 8.00864 13.6206 8.42285 13.6206V12.1206ZM11.1604 16.3582C11.5746 16.3582 11.9104 16.0224 11.9104 15.6082C11.9104 15.1939 11.5746 14.8582 11.1604 14.8582V16.3582ZM8.42285 14.8582C8.00864 14.8582 7.67285 15.1939 7.67285 15.6082C7.67285 16.0224 8.00864 16.3582 8.42285 16.3582V14.8582ZM20.7423 13.6206C21.1565 13.6206 21.4923 13.2848 21.4923 12.8706C21.4923 12.4564 21.1565 12.1206 20.7423 12.1206V13.6206ZM18.0047 12.1206C17.5905 12.1206 17.2547 12.4564 17.2547 12.8706C17.2547 13.2848 17.5905 13.6206 18.0047 13.6206V12.1206ZM20.7423 16.3582C21.1565 16.3582 21.4923 16.0224 21.4923 15.6082C21.4923 15.1939 21.1565 14.8582 20.7423 14.8582V16.3582ZM18.0047 14.8582C17.5905 14.8582 17.2547 15.1939 17.2547 15.6082C17.2547 16.0224 17.5905 16.3582 18.0047 16.3582V14.8582ZM11.1604 12.1206H8.42285V13.6206H11.1604V12.1206ZM11.1604 14.8582H8.42285V16.3582H11.1604V14.8582ZM20.7423 12.1206H18.0047V13.6206H20.7423V12.1206ZM20.7423 14.8582H18.0047V16.3582H20.7423V14.8582Z" fill="#484848"/>
</svg>
