<svg width="20" height="15" viewBox="0 0 20 15" fill="none" xmlns="http://www.w3.org/2000/svg">
<g clip-path="url(#clip0_2775_2302)">
<path d="M19.5583 2.33958C19.4436 1.88738 19.2198 1.47512 18.9093 1.14386C18.5987 0.812593 18.2122 0.573884 17.7883 0.4515C16.2363 0 9.98986 0 9.98986 0C9.98986 0 3.74314 0.0136666 2.19111 0.465167C1.76716 0.587558 1.38067 0.82628 1.07013 1.15756C0.759581 1.48884 0.535813 1.90111 0.421109 2.35333C-0.0483444 5.29483 -0.230454 9.777 0.433999 12.6008C0.548716 13.053 0.772489 13.4653 1.08303 13.7966C1.39358 14.1278 1.78006 14.3665 2.204 14.4889C3.75603 14.9404 10.0026 14.9404 10.0026 14.9404C10.0026 14.9404 16.2491 14.9404 17.801 14.4889C18.225 14.3665 18.6115 14.1278 18.922 13.7966C19.2326 13.4653 19.4564 13.053 19.5711 12.6008C20.0663 9.65517 20.2188 5.17575 19.5583 2.33958Z" fill="#FF0000"/>
<path d="M8.00195 10.6716L13.1838 7.47005L8.00195 4.26855V10.6716Z" fill="white"/>
</g>
<defs>
<clipPath id="clip0_2775_2302">
<rect width="20" height="15" fill="white"/>
</clipPath>
</defs>
</svg>
